<?xml version="1.0" encoding="UTF-8" standalone="no"?>
<!-- Generator: Adobe Illustrator 19.0.0, SVG Export Plug-In . SVG Version: 6.00 Build 0)  -->

<svg
   xmlns:dc="http://purl.org/dc/elements/1.1/"
   xmlns:cc="http://creativecommons.org/ns#"
   xmlns:rdf="http://www.w3.org/1999/02/22-rdf-syntax-ns#"
   xmlns:svg="http://www.w3.org/2000/svg"
   xmlns="http://www.w3.org/2000/svg"
   xmlns:sodipodi="http://sodipodi.sourceforge.net/DTD/sodipodi-0.dtd"
   xmlns:inkscape="http://www.inkscape.org/namespaces/inkscape"
   version="1.1"
   id="Layer_1"
   x="0px"
   y="0px"
   viewBox="0 0 286.054 286.054"
   style="enable-background:new 0 0 286.054 286.054;"
   xml:space="preserve"
   inkscape:version="0.91 r13725"
   sodipodi:docname="ok.svg"><metadata
     id="metadata41"><rdf:RDF><cc:Work
         rdf:about=""><dc:format>image/svg+xml</dc:format><dc:type
           rdf:resource="http://purl.org/dc/dcmitype/StillImage" /><dc:title></dc:title></cc:Work></rdf:RDF></metadata><defs
     id="defs39" /><sodipodi:namedview
     pagecolor="#ffffff"
     bordercolor="#666666"
     borderopacity="1"
     objecttolerance="10"
     gridtolerance="10"
     guidetolerance="10"
     inkscape:pageopacity="0"
     inkscape:pageshadow="2"
     inkscape:window-width="1920"
     inkscape:window-height="1017"
     id="namedview37"
     showgrid="false"
     inkscape:zoom="0.82501909"
     inkscape:cx="143.02699"
     inkscape:cy="143.02699"
     inkscape:window-x="1912"
     inkscape:window-y="-8"
     inkscape:window-maximized="1"
     inkscape:current-layer="g3" /><g
     id="g3"><path
       style="fill:#3DB39E;"
       d="M143.031,0C64.027,0,0.004,64.04,0.004,143.027c0,78.996,64.031,143.027,143.027,143.027   c78.987,0,143.018-64.031,143.018-143.027C286.049,64.049,222.018,0,143.031,0z M143.031,259.236   c-64.183,0-116.209-52.026-116.209-116.209S78.857,26.818,143.031,26.818s116.2,52.026,116.2,116.209   S207.206,259.236,143.031,259.236z M199.241,82.187c-6.079-3.629-13.847-1.475-17.342,4.827l-47.959,86.147l-26.71-32.512   c-4.836-5.569-11.263-8.456-17.333-4.827c-6.079,3.638-8.591,12.39-4.657,18.004l37.169,45.241c2.78,3.611,5.953,5.775,9.27,6.392   l0.027,0.054l0.34,0.018c0.751,0.116,11.979,2.19,16.815-6.463l55.048-98.876C207.402,93.879,205.32,85.825,199.241,82.187z"
       id="path5"
       inkscape:export-filename="C:\AHNAC\DEV\AHNAC_notifications\Images\ok.png"
       inkscape:export-xdpi="90"
       inkscape:export-ydpi="90" /></g><g
     id="g7" /><g
     id="g9" /><g
     id="g11" /><g
     id="g13" /><g
     id="g15" /><g
     id="g17" /><g
     id="g19" /><g
     id="g21" /><g
     id="g23" /><g
     id="g25" /><g
     id="g27" /><g
     id="g29" /><g
     id="g31" /><g
     id="g33" /><g
     id="g35" /></svg>