<?xml version="1.0" encoding="UTF-8" standalone="no"?>
<!-- Generator: Adobe Illustrator 19.0.0, SVG Export Plug-In . SVG Version: 6.00 Build 0)  -->

<svg
   xmlns:dc="http://purl.org/dc/elements/1.1/"
   xmlns:cc="http://creativecommons.org/ns#"
   xmlns:rdf="http://www.w3.org/1999/02/22-rdf-syntax-ns#"
   xmlns:svg="http://www.w3.org/2000/svg"
   xmlns="http://www.w3.org/2000/svg"
   xmlns:sodipodi="http://sodipodi.sourceforge.net/DTD/sodipodi-0.dtd"
   xmlns:inkscape="http://www.inkscape.org/namespaces/inkscape"
   version="1.1"
   id="Layer_1"
   x="0px"
   y="0px"
   viewBox="0 0 512 512"
   style="enable-background:new 0 0 512 512;"
   xml:space="preserve"
   inkscape:version="0.91 r13725"
   sodipodi:docname="phone.svg"><metadata
     id="metadata51"><rdf:RDF><cc:Work
         rdf:about=""><dc:format>image/svg+xml</dc:format><dc:type
           rdf:resource="http://purl.org/dc/dcmitype/StillImage" /><dc:title></dc:title></cc:Work></rdf:RDF></metadata><defs
     id="defs49" /><sodipodi:namedview
     pagecolor="#ffffff"
     bordercolor="#666666"
     borderopacity="1"
     objecttolerance="10"
     gridtolerance="10"
     guidetolerance="10"
     inkscape:pageopacity="0"
     inkscape:pageshadow="2"
     inkscape:window-width="1920"
     inkscape:window-height="1017"
     id="namedview47"
     showgrid="false"
     inkscape:zoom="0.921875"
     inkscape:cx="596.8259"
     inkscape:cy="366.59272"
     inkscape:window-x="1912"
     inkscape:window-y="-8"
     inkscape:window-maximized="1"
     inkscape:current-layer="g7" /><g
     transform="translate(1 1)"
     id="g3"><g
       id="g5"><g
         id="g7"><path
           d="M254.948,39.96c5.973,4.267,11.093,5.12,26.453,5.973c45.227,2.56,73.387,12.8,104.96,35.84     c39.253,28.16,64,68.267,72.533,117.76c2.56,12.8,3.413,23.893,4.267,40.107c0.853,11.947,0.853,16.213,3.413,20.48     c4.267,6.827,11.093,11.093,18.773,11.947c0.853,0,1.707,0,2.56,0c6.827,0,13.653-3.413,17.067-9.387     c5.973-6.827,5.973-12.8,5.12-26.453c-1.707-41.813-10.24-80.213-27.307-112.64c-11.947-23.04-23.04-38.4-43.52-58.027     c-21.333-20.48-37.547-32.427-63.147-44.373c-26.453-12.8-45.227-17.067-73.387-20.48C297.615-0.147,287.375-1,279.695-1     c-13.653,0-19.627,0-25.6,5.973c-5.12,4.267-7.68,11.093-7.68,17.92S249.828,35.693,254.948,39.96z M265.188,17.773     c0.853-0.853,1.707-1.707,7.68-1.707c1.707,0,3.413,0,5.973,0c6.827,0,17.067,0.853,22.187,1.707     c26.453,3.413,43.52,6.827,68.267,18.773c23.893,11.947,38.4,22.187,58.88,41.813c18.773,18.773,29.013,32.427,40.107,53.76     c15.36,30.72,23.893,65.707,25.6,105.813c0,12.8,0,13.653-1.707,14.507c-0.853,1.707-3.413,1.707-5.12,1.707     s-4.267-0.853-5.12-2.56c-0.853-0.853-0.853-2.56-1.707-12.8c-0.853-17.067-1.707-29.013-4.267-42.667     c-10.24-54.613-36.693-98.133-79.36-128.853c-34.133-24.747-65.707-35.84-114.347-38.4c-14.507-0.853-15.36-1.707-17.067-2.56     c-0.853-0.853-1.707-2.56-1.707-4.267S264.335,18.627,265.188,17.773z"
           id="path9"
           style="fill:#ffffff"
           inkscape:export-filename="C:\AHNAC\DEV\AHNAC_notifications\Images\phone_ok.png"
           inkscape:export-xdpi="90"
           inkscape:export-ydpi="90" /><path
           d="M394.895,223.427c0,11.947,0.853,23.04,12.8,29.013c3.413,1.707,7.68,2.56,11.947,2.56c3.413,0,7.68-0.853,10.24-2.56     c4.267-1.707,9.387-7.68,11.093-11.947c2.56-5.973,1.707-28.16,0.853-34.133c-3.413-27.307-12.8-52.907-27.307-74.24     c-27.307-39.253-67.413-62.293-119.467-69.973c-17.92-2.56-30.72-3.413-38.4,8.533c-5.973,8.533-5.12,20.48,1.707,28.16     c5.973,6.827,13.653,7.68,21.333,8.533c20.48,1.707,43.52,8.533,58.88,17.067c17.92,10.24,32.427,25.6,42.667,43.52     C389.775,184.173,394.895,203.8,394.895,223.427z M347.961,109.933c-17.92-10.24-43.52-17.067-68.267-18.773     c-6.827,0-8.533-1.707-9.387-2.56c-1.707-2.56-1.707-5.12,0-7.68c1.707-1.707,2.56-3.413,22.187-0.853     c47.787,6.827,83.627,27.307,107.52,62.293c13.653,18.773,22.187,41.813,24.747,66.56c1.707,8.533,0.853,23.04,0.853,25.6     c-0.853,0.853-2.56,2.56-3.413,3.413c-0.853,0-5.12,0-5.973-0.853c-1.707-0.853-3.413-1.707-3.413-13.653     c0-22.187-5.973-46.08-16.213-64C385.508,138.947,368.441,121.88,347.961,109.933z"
           id="path11"
           style="fill:#ffffff"
           inkscape:export-filename="C:\AHNAC\DEV\AHNAC_notifications\Images\phone_ok.png"
           inkscape:export-xdpi="90"
           inkscape:export-ydpi="90" /><path
           d="M347.961,150.893c-11.093-11.093-24.747-17.92-42.667-21.333c-4.267-0.853-11.093-1.707-15.36-1.707     c-6.827,0-10.24,0-15.36,2.56c-5.973,3.413-10.24,9.387-11.947,16.213c-1.707,6.827,0.853,14.507,5.12,19.627     c5.973,5.973,11.093,6.827,22.187,8.533c18.773,1.707,29.013,8.533,34.987,20.48c3.413,5.973,5.12,12.8,5.973,23.04     c0.853,8.533,2.56,14.507,9.387,19.627c4.267,2.56,9.387,4.267,14.507,4.267c5.973,0,11.093-1.707,13.653-4.267     c8.533-7.68,9.387-17.92,6.827-32.427C371.001,181.613,363.321,164.547,347.961,150.893z M358.201,224.28     c-1.707,1.707-5.973,1.707-8.533,0c-0.853-0.853-1.707-0.853-2.56-7.68c-0.853-11.093-2.56-19.627-6.827-28.16     c-8.533-17.92-23.893-28.16-47.787-30.72c-9.387-1.707-10.24-1.707-11.093-3.413c-0.853-1.707-0.853-3.413-0.853-5.12     c0.853-1.707,1.707-3.413,3.413-4.267c0.853-0.853,0.853-0.853,2.56-0.853c0.853,0,2.56,0,3.413,0     c4.267,0.853,10.24,0.853,12.8,1.707c14.507,3.413,25.6,8.533,34.987,17.067c11.947,11.093,18.773,24.747,21.333,44.373     C361.615,220.867,359.908,222.573,358.201,224.28z"
           id="path13"
           style="fill:#ffffff"
           inkscape:export-filename="C:\AHNAC\DEV\AHNAC_notifications\Images\phone_ok.png"
           inkscape:export-xdpi="90"
           inkscape:export-ydpi="90" /><path
           d="M501.561,387.267c-5.973-6.827-42.667-35.84-58.88-46.933c-12.8-8.533-33.28-20.48-42.667-25.6     c-13.653-6.827-28.16-7.68-41.813-3.413c-2.56,0.853-5.12,1.707-6.827,2.56c-6.827,3.413-11.947,9.387-22.187,21.333     c-10.24,12.8-12.8,15.36-12.8,15.36c-0.853,0.853-2.56,1.707-4.267,2.56h-0.853c-7.68,4.267-20.48,0.853-41.813-9.387     c-17.92-8.533-34.133-19.627-52.053-35.84c-15.36-13.653-30.72-31.573-39.253-45.227c-11.947-19.627-19.627-41.813-19.627-52.053     c0-4.267,1.707-10.24,3.413-12.8l0.853-0.853c0,0,0.853-0.853,1.707-1.707c3.413-2.56,7.68-5.973,11.947-9.387     c19.627-15.36,25.6-21.333,29.013-33.28c3.413-11.093,0.853-23.893-8.533-41.813c-13.653-26.453-58.027-82.773-75.947-94.72     c-2.56-2.56-7.68-5.12-11.093-5.973c-7.68-3.413-17.92-4.267-24.747-2.56c-9.387,1.707-19.627,7.68-41.813,24.747     c-12.8,8.533-31.573,26.453-36.693,34.987c-11.947,20.48-8.533,37.547,1.707,67.413c10.24,28.16,23.893,56.32,40.107,84.48     l0.853,1.707c3.413,5.12,6.827,11.093,10.24,16.213l0.853,1.707c3.413,5.12,6.827,11.093,10.24,16.213l5.973,8.533     c2.56,3.413,4.267,5.973,6.827,9.387c4.267,5.973,9.387,11.947,13.653,17.92c49.493,64,106.667,116.053,174.08,157.867     l2.56,1.707c9.387,5.973,19.627,11.947,30.72,17.92l4.267,2.56c11.093,5.973,21.333,11.093,32.427,16.213l3.413,1.707     c12.8,5.973,23.893,11.093,34.987,15.36c13.653,5.12,19.627,6.827,29.013,6.827c1.707,0,3.413,0,5.12,0     c5.973,0,11.947-0.853,17.067-2.56c7.68-2.56,14.507-5.973,23.04-11.947c0.853-0.853,2.56-2.56,4.267-3.413     c1.707-1.707,4.267-3.413,5.973-5.12c9.387-7.68,20.48-19.627,29.013-31.573c4.267-5.973,10.24-15.36,13.653-23.04     c3.413-6.827,4.267-14.507,4.267-21.333C510.948,402.627,507.535,394.093,501.561,387.267z M491.321,427.373     c-1.707,5.12-5.973,11.947-11.947,19.627c-7.68,11.093-17.92,21.333-26.453,29.013c-1.707,1.707-3.413,3.413-5.12,4.267     c-1.707,0.853-2.56,1.707-4.267,2.56c-6.827,5.12-12.8,7.68-17.92,9.387c-4.267,0.853-8.533,1.707-12.8,1.707     c-9.387,0-12.8,0-26.453-5.12c-10.24-5.12-21.333-9.387-34.133-15.36l-3.413-1.707c-10.24-5.12-21.333-10.24-31.573-16.213     l-4.267-2.56c-10.24-5.12-20.48-11.093-29.867-17.067l-2.56-1.707c-66.56-40.96-122.027-91.307-169.813-153.6     c-4.267-5.973-8.533-11.947-12.8-17.92c-2.56-3.413-5.12-5.973-6.827-9.387l-5.12-7.68c-4.267-5.12-7.68-10.24-11.093-16.213     l-0.853-0.853c-3.413-5.12-5.973-11.093-9.387-16.213l-0.853-1.707c-16.213-26.453-29.013-54.613-39.253-81.92     c-11.947-30.72-10.24-40.96-3.413-52.907c3.413-5.12,19.627-21.333,32.427-29.867C72.335,31.427,82.575,25.453,88.548,24.6     c3.413-0.853,11.093,0,15.36,1.707c1.707,0.853,5.12,2.56,7.68,4.267c12.8,8.533,55.467,60.587,69.973,87.893     c6.827,12.8,9.387,23.04,7.68,29.013c-1.707,5.973-3.413,9.387-23.04,24.747c-5.12,3.413-9.387,7.68-12.8,10.24     c-0.853,0.853-1.707,1.707-2.56,2.56l-0.853,0.853c-0.853,0.853-1.707,0.853-1.707,1.707l-0.853,0.853     c-4.267,5.12-6.827,15.36-6.827,23.04c0.853,15.36,9.387,40.107,22.187,60.587c9.387,14.507,26.453,34.133,42.667,48.64     c18.773,17.067,35.84,29.013,55.467,38.4c25.6,11.947,41.813,15.36,55.467,10.24h0.853l1.707-0.853     c1.707-0.853,4.267-1.707,5.12-2.56c0.853-0.853,1.707-0.853,2.56-1.707c0.853-0.853,1.707-1.707,15.36-17.92     c10.24-11.947,13.653-15.36,17.067-17.067c0.853-0.853,2.56-0.853,4.267-1.707c9.387-3.413,18.773-2.56,29.013,2.56     c8.533,5.12,28.16,16.213,40.107,24.747c17.92,11.947,52.053,39.253,55.467,43.52c4.267,4.267,5.973,8.533,5.973,14.507     C493.881,417.133,493.028,422.253,491.321,427.373z"
           id="path15"
           style="fill:#ffffff;fill-opacity:1"
           inkscape:export-filename="C:\AHNAC\DEV\AHNAC_notifications\Images\phone_ok.png"
           inkscape:export-xdpi="90"
           inkscape:export-ydpi="90" /><path
           style="opacity:0.97899996;fill:#3db39e;fill-opacity:1;stroke:none;stroke-width:1.20000005;stroke-miterlimit:0;stroke-dasharray:none;stroke-dashoffset:0;stroke-opacity:1"
           d="M 388.33898,488.98564 C 381.77627,486.47515 358.73135,475.48203 337.12803,464.5565 235.27749,413.04717 161.82621,350.08276 96.619902,258.38644 51.205821,194.52293 13.787709,113.62721 18.282042,89.024675 21.486917,71.480789 75.369034,27.335593 93.577626,27.335593 c 4.732171,0 11.312894,1.400847 14.623814,3.112994 13.8587,7.16661 59.89466,63.762682 73.806,90.736213 4.36183,8.45743 6.73832,16.24573 6.73832,22.08303 0,9.83975 -2.36067,12.67221 -29.02691,34.82791 -20.10229,16.70202 -22.87062,28.95699 -13.33368,59.02616 6.61603,20.85982 17.62988,39.76952 35.12216,60.30131 30.45465,35.74656 72.67589,64.5389 108.11979,73.73119 22.94259,5.95011 32.80508,1.90629 53.14922,-21.79222 22.99945,-26.79164 31.89161,-28.10489 63.68855,-9.406 32.8638,19.32628 82.06232,57.51063 85.83515,66.61907 5.77195,13.93475 -5.37702,35.78333 -31.68336,62.08968 -24.70934,24.70933 -45.51455,30.55867 -72.2777,20.32071 z"
           id="path4179"
           inkscape:connector-curvature="0"
           transform="translate(-1,-1)"
           inkscape:export-filename="C:\AHNAC\DEV\AHNAC_notifications\Images\phone_ok.png"
           inkscape:export-xdpi="90"
           inkscape:export-ydpi="90" /><path
           style="opacity:0.97899996;fill:#3db39e;fill-opacity:1;stroke:none;stroke-width:1.20000005;stroke-miterlimit:0;stroke-dasharray:none;stroke-dashoffset:0;stroke-opacity:1"
           d="m 352.31557,225.94778 c -2.81633,-1.03122 -3.50458,-2.78784 -4.34681,-11.09443 -1.30289,-12.84984 -3.86479,-21.30956 -9.16933,-30.2783 -8.17251,-13.81779 -21.7723,-22.37622 -40.05522,-25.207 -7.02572,-1.0878 -13.70238,-2.34294 -14.69589,-2.76266 -1.32381,-0.55927 -2.10413,-2.0954 -2.30964,-4.54675 -0.14843,-1.77054 -0.10969,-1.94244 0.76356,-3.3873 0.52752,-0.87282 1.46968,-1.91779 2.2087,-2.44971 1.24318,-0.8948 1.37666,-0.9276 3.77421,-0.9276 4.41273,0 12.7527,1.00988 17.03872,2.0632 15.37465,3.77845 27.16579,10.18244 36.15499,19.63645 6.94955,7.3089 11.56612,15.21373 14.80874,25.35663 1.35392,4.23505 2.18843,7.9796 3.44367,15.45219 0.84939,5.05658 1.00583,6.63048 1.0262,10.32417 l 0.024,4.35806 -0.81671,1.33685 c -1.1046,1.80809 -2.59485,2.56404 -5.00346,2.53808 -0.97517,-0.0105 -2.25576,-0.19586 -2.84575,-0.41188 z"
           id="path4181"
           inkscape:connector-curvature="0"
           transform="translate(-1,-1)"
           inkscape:export-filename="C:\AHNAC\DEV\AHNAC_notifications\Images\phone_ok.png"
           inkscape:export-xdpi="90"
           inkscape:export-ydpi="90" /><path
           style="opacity:0.97899996;fill:#3db39e;fill-opacity:1;stroke:none;stroke-width:1.20000005;stroke-miterlimit:0;stroke-dasharray:none;stroke-dashoffset:0;stroke-opacity:1"
           d="m 419.28658,238.58319 c -0.74576,-0.11137 -1.81802,-0.47693 -2.38279,-0.81236 -2.17675,-1.29281 -2.58961,-3.16583 -2.90993,-13.20154 -0.13888,-4.35114 -0.37947,-9.29352 -0.53464,-10.98305 -2.17777,-23.71213 -9.03363,-43.78141 -21.29118,-62.32611 -10.28959,-15.56732 -24.52215,-29.14326 -41.07635,-39.18129 -14.5442,-8.81922 -34.7488,-15.416151 -56.84226,-18.559373 -3.12109,-0.444036 -7.38319,-0.941039 -9.47133,-1.104451 -9.56801,-0.748765 -9.66166,-0.762222 -11.46301,-1.647087 -1.44455,-0.709597 -1.80147,-1.034868 -2.37288,-2.162499 -1.48591,-2.932302 -0.52522,-6.508065 2.12992,-7.927713 1.06129,-0.567451 1.44995,-0.602934 6.41784,-0.585935 5.64983,0.01933 9.79909,0.421223 18.0339,1.746731 35.98602,5.792456 64.64511,19.487337 86.52159,41.344737 8.38268,8.37537 16.5545,18.87849 22.99958,29.56101 4.32189,7.1634 9.2103,17.89825 11.98211,26.31248 2.61098,7.92599 4.93851,17.96443 5.94195,25.62712 0.24415,1.8644 0.62612,4.61017 0.84883,6.10169 0.69092,4.62715 0.99643,11.3343 0.82705,18.1568 l -0.16127,6.49579 -1.69243,1.7076 c -1.60408,1.61848 -1.75653,1.70584 -2.9206,1.67377 -0.67549,-0.0186 -1.83834,-0.12495 -2.5841,-0.23632 z"
           id="path4183"
           inkscape:connector-curvature="0"
           transform="translate(-1,-1)"
           inkscape:export-filename="C:\AHNAC\DEV\AHNAC_notifications\Images\phone_ok.png"
           inkscape:export-xdpi="90"
           inkscape:export-ydpi="90" /><path
           style="opacity:0.97899996;fill:#3db39e;fill-opacity:1;stroke:none;stroke-width:1.20000005;stroke-miterlimit:0;stroke-dasharray:none;stroke-dashoffset:0;stroke-opacity:1"
           d="m 486.5998,254.84386 c -2.01992,-0.50586 -3.5185,-1.72695 -4.08401,-3.32779 -0.30403,-0.86062 -0.96114,-8.72076 -1.5347,-18.35764 -1.10652,-18.59147 -2.42003,-29.47945 -5.03235,-41.71445 C 464.81916,139.31781 439.03558,98.431159 398.67641,68.908358 365.00068,44.274503 333.97306,33.239666 289.79505,30.185173 c -21.25702,-1.469723 -22.9204,-1.748183 -24.2777,-4.064238 -1.44629,-2.467908 -1.04691,-5.493913 0.965,-7.311548 0.58396,-0.527573 1.40041,-1.053846 1.81434,-1.169496 1.27943,-0.357465 20.46918,-0.237696 24.48141,0.152796 9.33506,0.908536 27.42262,3.601385 35.11865,5.228409 20.75314,4.387439 39.36134,11.944823 60.8098,24.696802 19.46521,11.572854 40.80897,30.258948 57.55647,50.389687 25.75543,30.958395 41.99256,72.739235 47.05328,121.075925 1.19535,11.41721 1.79482,25.63441 1.2848,30.47101 -0.24647,2.33734 -0.33636,2.60239 -1.18048,3.48077 -0.50254,0.52293 -1.23354,1.1184 -1.62446,1.32328 -0.93417,0.4896 -3.90137,0.7096 -5.19636,0.38529 z"
           id="path4185"
           inkscape:connector-curvature="0"
           transform="translate(-1,-1)"
           inkscape:export-filename="C:\AHNAC\DEV\AHNAC_notifications\Images\phone_ok.png"
           inkscape:export-xdpi="90"
           inkscape:export-ydpi="90" /></g></g></g><g
     id="g17" /><g
     id="g19" /><g
     id="g21" /><g
     id="g23" /><g
     id="g25" /><g
     id="g27" /><g
     id="g29" /><g
     id="g31" /><g
     id="g33" /><g
     id="g35" /><g
     id="g37" /><g
     id="g39" /><g
     id="g41" /><g
     id="g43" /><g
     id="g45" /></svg>